<svg xmlns="http://www.w3.org/2000/svg" width="27.49" height="27.484" viewBox="0 0 27.49 27.484">
  <path id="Icon_awesome-instagram" data-name="Icon awesome-instagram" d="M13.743,8.933A7.047,7.047,0,1,0,20.79,15.98,7.035,7.035,0,0,0,13.743,8.933Zm0,11.628a4.581,4.581,0,1,1,4.581-4.581,4.59,4.59,0,0,1-4.581,4.581ZM22.722,8.645A1.644,1.644,0,1,1,21.078,7,1.64,1.64,0,0,1,22.722,8.645Zm4.667,1.668a8.134,8.134,0,0,0-2.22-5.759,8.187,8.187,0,0,0-5.759-2.22c-2.269-.129-9.07-.129-11.34,0A8.176,8.176,0,0,0,2.311,4.548a8.16,8.16,0,0,0-2.22,5.759c-.129,2.269-.129,9.07,0,11.34a8.134,8.134,0,0,0,2.22,5.759,8.2,8.2,0,0,0,5.759,2.22c2.269.129,9.07.129,11.34,0a8.134,8.134,0,0,0,5.759-2.22,8.187,8.187,0,0,0,2.22-5.759c.129-2.269.129-9.064,0-11.333ZM24.457,24.081a4.638,4.638,0,0,1-2.613,2.613c-1.809.718-6.1.552-8.1.552s-6.3.159-8.1-.552a4.638,4.638,0,0,1-2.613-2.613c-.718-1.809-.552-6.1-.552-8.1s-.159-6.3.552-8.1A4.638,4.638,0,0,1,5.642,5.266c1.809-.718,6.1-.552,8.1-.552s6.3-.159,8.1.552a4.638,4.638,0,0,1,2.613,2.613c.718,1.809.552,6.1.552,8.1S25.175,22.278,24.457,24.081Z" transform="translate(0.005 -2.238)" fill="#fff"/>
</svg>
