<svg xmlns="http://www.w3.org/2000/svg" width="24.669" height="24.668" viewBox="0 0 24.669 24.668">
  <path id="Icon_awesome-linkedin-in" data-name="Icon awesome-linkedin-in" d="M5.522,24.669H.407V8.2H5.522ZM2.962,5.953a2.976,2.976,0,1,1,2.962-2.99A2.987,2.987,0,0,1,2.962,5.953Zm21.7,18.716h-5.1V16.652c0-1.911-.039-4.361-2.659-4.361-2.659,0-3.067,2.076-3.067,4.223v8.155H8.725V8.2h4.905v2.247H13.7a5.374,5.374,0,0,1,4.839-2.66c5.176,0,6.128,3.408,6.128,7.836v9.047Z" transform="translate(0 0)" fill="#fff"/>
</svg>
