<svg id="Layer_1-2" xmlns="http://www.w3.org/2000/svg" width="43.862" height="35.933" viewBox="0 0 43.862 35.933">
  <path id="Path_3" data-name="Path 3" d="M43.872,22.236a1.876,1.876,0,0,1-2.056,1.3c-1.685-.04-3.369-.012-5.054-.012h-.508v.5c0,2.6.009,5.2-.006,7.8a10.025,10.025,0,0,1-.167,1.827,2.574,2.574,0,0,1-2.991,2.267,4.119,4.119,0,0,1-3.233-1.74c-.635-.824-1.242-1.675-1.815-2.542q-2.545-3.86-5.047-7.748a.7.7,0,0,0-.684-.365c-3.084.012-6.168.006-9.253.006h-.5v.508c-.009,3.056,0,6.113-.04,9.166a2.641,2.641,0,0,1-1.127,2.332,2.37,2.37,0,0,1-3.651-1.508,8.238,8.238,0,0,1-.167-1.657c-.015-2.756-.006-5.512-.006-8.268v-.573H7.091c-1.8,0-3.6.009-5.4,0A1.622,1.622,0,0,1,.114,21.338a1.646,1.646,0,0,1,1.638-1.075c1.771-.006,3.539,0,5.311,0h.48v-5.75H7.091c-1.74,0-3.484.019-5.224-.015A2.493,2.493,0,0,1,.7,14.175a1.514,1.514,0,0,1-.607-1.768,1.568,1.568,0,0,1,1.533-1.146c1.784-.015,3.57-.006,5.354-.006h.585v-.511c0-2.056-.012-4.112.006-6.168a13.416,13.416,0,0,1,.155-1.96A3.262,3.262,0,0,1,11.045,0a3.338,3.338,0,0,1,2.771,1.672c1.663,2.508,3.31,5.029,4.967,7.543.393.595.777,1.2,1.189,1.781a.626.626,0,0,0,.43.251c3.583.012,7.169.009,10.751.009.056,0,.111-.012.229-.025v-.5c0-2.4-.015-4.8.009-7.2a7.541,7.541,0,0,1,.232-1.9A2.044,2.044,0,0,1,33.836,0a2.127,2.127,0,0,1,2.236,1.787,8.2,8.2,0,0,1,.173,1.7c.019,2.443.006,4.883.006,7.327v.446h.48c1.7,0,3.4.031,5.1-.012a1.849,1.849,0,0,1,2.044,1.31v.684a1.921,1.921,0,0,1-2.112,1.285c-1.669-.037-3.338-.009-5.007-.009h-.474v5.75h.489c1.685,0,3.369.031,5.051-.012a1.879,1.879,0,0,1,2.056,1.3v.684Zm-12.513-7.68H22.313c1.239,1.87,2.437,3.694,3.654,5.5a.615.615,0,0,0,.455.2c1.527.015,3.053.009,4.58.006.121,0,.242-.015.356-.025V14.553ZM20.592,20.248c-.1-.17-.173-.291-.248-.409q-1.287-1.974-2.573-3.945c-.3-.452-.508-1.078-.929-1.3a3.859,3.859,0,0,0-1.638-.081c-.867-.006-1.734,0-2.623,0v5.735h8.014Zm7.655,3.285c1.04,1.573,2.041,3.09,3.106,4.7v-4.7ZM12.661,8.06l-.081.019v3.14h2.14c-.709-1.09-1.384-2.124-2.059-3.162Z" transform="translate(-0.013 0.006)" fill="#fff"/>
</svg>
