<svg xmlns="http://www.w3.org/2000/svg" xmlns:xlink="http://www.w3.org/1999/xlink" width="324.5" height="44.107" viewBox="0 0 324.5 44.107">
  <defs>
    <clipPath id="clip-path">
      <rect width="324.5" height="44.107" fill="none"/>
    </clipPath>
  </defs>
  <g id="Repeat_Grid_1" data-name="Repeat Grid 1" clip-path="url(#clip-path)">
    <g transform="translate(-611.5 -3402)">
      <path id="Icon_ionic-ios-star" data-name="Icon ionic-ios-star" d="M47.948,18.643h-15.6L27.612,4.5a1.717,1.717,0,0,0-3.223,0L19.649,18.643H3.946a1.7,1.7,0,0,0-1.7,1.7,1.247,1.247,0,0,0,.032.286,1.63,1.63,0,0,0,.71,1.2l12.819,9.033-4.92,14.3a1.7,1.7,0,0,0,.583,1.908,1.641,1.641,0,0,0,.954.414,2.079,2.079,0,0,0,1.06-.382L26,38.184,38.511,47.1a1.987,1.987,0,0,0,1.06.382,1.523,1.523,0,0,0,.944-.414A1.681,1.681,0,0,0,41.1,45.16l-4.92-14.3,12.713-9.118.307-.265a1.779,1.779,0,0,0,.551-1.134A1.8,1.8,0,0,0,47.948,18.643Z" transform="translate(609.25 3398.625)" fill="#21c0fc"/>
    </g>
    <g transform="translate(-543.5 -3402)">
      <path id="Icon_ionic-ios-star-2" data-name="Icon ionic-ios-star" d="M47.948,18.643h-15.6L27.612,4.5a1.717,1.717,0,0,0-3.223,0L19.649,18.643H3.946a1.7,1.7,0,0,0-1.7,1.7,1.247,1.247,0,0,0,.032.286,1.63,1.63,0,0,0,.71,1.2l12.819,9.033-4.92,14.3a1.7,1.7,0,0,0,.583,1.908,1.641,1.641,0,0,0,.954.414,2.079,2.079,0,0,0,1.06-.382L26,38.184,38.511,47.1a1.987,1.987,0,0,0,1.06.382,1.523,1.523,0,0,0,.944-.414A1.681,1.681,0,0,0,41.1,45.16l-4.92-14.3,12.713-9.118.307-.265a1.779,1.779,0,0,0,.551-1.134A1.8,1.8,0,0,0,47.948,18.643Z" transform="translate(609.25 3398.625)" fill="#21c0fc"/>
    </g>
    <g transform="translate(-475.5 -3402)">
      <path id="Icon_ionic-ios-star-3" data-name="Icon ionic-ios-star" d="M47.948,18.643h-15.6L27.612,4.5a1.717,1.717,0,0,0-3.223,0L19.649,18.643H3.946a1.7,1.7,0,0,0-1.7,1.7,1.247,1.247,0,0,0,.032.286,1.63,1.63,0,0,0,.71,1.2l12.819,9.033-4.92,14.3a1.7,1.7,0,0,0,.583,1.908,1.641,1.641,0,0,0,.954.414,2.079,2.079,0,0,0,1.06-.382L26,38.184,38.511,47.1a1.987,1.987,0,0,0,1.06.382,1.523,1.523,0,0,0,.944-.414A1.681,1.681,0,0,0,41.1,45.16l-4.92-14.3,12.713-9.118.307-.265a1.779,1.779,0,0,0,.551-1.134A1.8,1.8,0,0,0,47.948,18.643Z" transform="translate(609.25 3398.625)" fill="#21c0fc"/>
    </g>
    <g transform="translate(-407.5 -3402)">
      <path id="Icon_ionic-ios-star-4" data-name="Icon ionic-ios-star" d="M47.948,18.643h-15.6L27.612,4.5a1.717,1.717,0,0,0-3.223,0L19.649,18.643H3.946a1.7,1.7,0,0,0-1.7,1.7,1.247,1.247,0,0,0,.032.286,1.63,1.63,0,0,0,.71,1.2l12.819,9.033-4.92,14.3a1.7,1.7,0,0,0,.583,1.908,1.641,1.641,0,0,0,.954.414,2.079,2.079,0,0,0,1.06-.382L26,38.184,38.511,47.1a1.987,1.987,0,0,0,1.06.382,1.523,1.523,0,0,0,.944-.414A1.681,1.681,0,0,0,41.1,45.16l-4.92-14.3,12.713-9.118.307-.265a1.779,1.779,0,0,0,.551-1.134A1.8,1.8,0,0,0,47.948,18.643Z" transform="translate(609.25 3398.625)" fill="#21c0fc"/>
    </g>
    <g transform="translate(-339.5 -3402)">
      <path id="Icon_ionic-ios-star-5" data-name="Icon ionic-ios-star" d="M47.948,18.643h-15.6L27.612,4.5a1.717,1.717,0,0,0-3.223,0L19.649,18.643H3.946a1.7,1.7,0,0,0-1.7,1.7,1.247,1.247,0,0,0,.032.286,1.63,1.63,0,0,0,.71,1.2l12.819,9.033-4.92,14.3a1.7,1.7,0,0,0,.583,1.908,1.641,1.641,0,0,0,.954.414,2.079,2.079,0,0,0,1.06-.382L26,38.184,38.511,47.1a1.987,1.987,0,0,0,1.06.382,1.523,1.523,0,0,0,.944-.414A1.681,1.681,0,0,0,41.1,45.16l-4.92-14.3,12.713-9.118.307-.265a1.779,1.779,0,0,0,.551-1.134A1.8,1.8,0,0,0,47.948,18.643Z" transform="translate(609.25 3398.625)" fill="#21c0fc"/>
    </g>
  </g>
</svg>
