<svg xmlns="http://www.w3.org/2000/svg" width="28.506" height="23.152" viewBox="0 0 28.506 23.152">
  <path id="Icon_awesome-twitter" data-name="Icon awesome-twitter" d="M25.576,9.151c.018.253.018.506.018.76,0,7.723-5.878,16.622-16.622,16.622A16.51,16.51,0,0,1,0,23.91a12.086,12.086,0,0,0,1.411.072,11.7,11.7,0,0,0,7.253-2.5A5.853,5.853,0,0,1,3.2,17.435a7.368,7.368,0,0,0,1.1.09,6.179,6.179,0,0,0,1.537-.2,5.843,5.843,0,0,1-4.685-5.734V11.52a5.884,5.884,0,0,0,2.641.742A5.851,5.851,0,0,1,1.99,4.448a16.606,16.606,0,0,0,12.046,6.114,6.6,6.6,0,0,1-.145-1.338A5.848,5.848,0,0,1,24,5.226,11.5,11.5,0,0,0,27.71,3.815a5.827,5.827,0,0,1-2.568,3.22,11.712,11.712,0,0,0,3.364-.9,12.559,12.559,0,0,1-2.93,3.021Z" transform="translate(0 -3.381)" fill="#fff"/>
</svg>
